<svg width="360" height="392" viewBox="0 0 360 392" fill="none" xmlns="http://www.w3.org/2000/svg">
<g filter="url(#filter0_d_43_57)">
<path d="M327.782 114.764H31.3922C22.8913 114.764 16 121.655 16 130.156V360.388C16 368.889 22.8913 375.78 31.3922 375.78H327.782C336.283 375.78 343.174 368.889 343.174 360.388V130.156C343.174 121.655 336.283 114.764 327.782 114.764Z" fill="#0037FF"/>
</g>
<g filter="url(#filter1_d_43_57)">
<path d="M310.454 146.871C310.454 74.5976 251.864 16 179.583 16C107.302 16 48.7119 74.59 48.7119 146.871C48.7119 146.992 48.7119 147.113 48.7119 147.234C48.7119 151.521 52.1895 154.991 56.4685 154.991H66.4023C70.6888 154.991 74.1589 151.513 74.1589 147.234C74.1589 147.113 74.1589 146.992 74.1589 146.871C74.1589 118.71 85.1284 92.235 105.034 72.3296C124.947 52.4165 151.422 41.4545 179.576 41.4545C207.729 41.4545 234.212 52.4241 254.117 72.3296C274.03 92.2426 284.992 118.718 284.992 146.871C284.992 146.992 284.992 147.113 284.992 147.234C284.992 151.521 288.47 154.991 292.749 154.991H302.683C306.969 154.991 310.439 151.513 310.439 147.234C310.439 147.113 310.439 146.992 310.439 146.871H310.454Z" fill="#FCBA03"/>
</g>
<path d="M224.664 199.466C221.178 193.41 216.075 188.927 209.347 186.017C202.619 183.106 194.378 181.655 184.626 181.655H139.364V285.809C139.364 285.809 139.364 285.824 139.364 285.831C139.364 289.029 136.771 291.622 133.573 291.622C131.872 291.622 130.345 290.882 129.279 289.71H129.271L131.177 307.408C133.717 308.36 136.469 308.882 139.341 308.882H139.357C139.357 308.882 139.379 308.882 139.387 308.882C139.78 308.882 140.165 308.874 140.559 308.852C140.559 308.852 140.559 308.852 140.566 308.852C144.134 308.67 147.484 307.68 150.455 306.07C150.455 306.07 150.455 306.07 150.462 306.07C151.445 305.533 152.39 304.928 153.282 304.255C153.297 304.248 153.312 304.232 153.32 304.225C153.607 304.013 153.887 303.794 154.159 303.567C154.446 303.333 154.726 303.091 154.998 302.841C155.006 302.834 155.021 302.819 155.028 302.811C155.293 302.569 155.55 302.327 155.807 302.07C155.845 302.033 155.875 301.995 155.913 301.957C156.14 301.73 156.359 301.496 156.578 301.261C156.624 301.209 156.669 301.156 156.714 301.103C156.918 300.876 157.115 300.649 157.312 300.415C157.349 300.369 157.38 300.332 157.41 300.286C157.614 300.037 157.81 299.787 157.999 299.538C158.037 299.492 158.068 299.439 158.105 299.387C158.287 299.137 158.476 298.88 158.65 298.623C158.71 298.532 158.771 298.434 158.831 298.343C158.975 298.124 159.118 297.905 159.254 297.686C159.33 297.565 159.398 297.436 159.474 297.308C159.587 297.111 159.708 296.914 159.814 296.71C159.874 296.604 159.927 296.491 159.98 296.378C160.094 296.151 160.215 295.932 160.328 295.705C160.396 295.561 160.464 295.41 160.525 295.266C160.615 295.07 160.706 294.873 160.789 294.677C160.857 294.51 160.918 294.344 160.986 294.178C161.061 293.996 161.137 293.807 161.205 293.626C161.258 293.49 161.296 293.346 161.349 293.202C161.424 292.983 161.5 292.764 161.575 292.545C161.598 292.469 161.621 292.386 161.643 292.303C161.727 292.016 161.817 291.728 161.885 291.441C161.923 291.305 161.946 291.169 161.976 291.033C162.037 290.791 162.089 290.556 162.142 290.315C162.195 290.05 162.241 289.778 162.286 289.506C162.301 289.392 162.331 289.286 162.346 289.173C162.384 288.908 162.415 288.636 162.445 288.372C162.46 288.251 162.475 288.13 162.49 288.009C162.505 287.858 162.513 287.706 162.528 287.555C162.581 286.92 162.611 286.277 162.611 285.635V264.747H185.147C194.718 264.747 202.838 263.25 209.506 260.248C216.174 257.247 221.231 252.643 224.686 246.436C228.141 240.23 229.865 232.337 229.865 222.758C229.865 213.18 228.126 205.552 224.641 199.489L224.664 199.466ZM200.305 239.912C196.336 243.488 190.387 245.272 182.449 245.272H162.634V201.107H181.904C190.084 201.107 196.185 202.86 200.215 206.376C204.244 209.891 206.255 215.463 206.255 223.099C206.255 230.734 204.267 236.336 200.305 239.912Z" fill="white"/>
<defs>
<filter id="filter0_d_43_57" x="0" y="98.7637" width="359.174" height="293.017" filterUnits="userSpaceOnUse" color-interpolation-filters="sRGB">
<feFlood flood-opacity="0" result="BackgroundImageFix"/>
<feColorMatrix in="SourceAlpha" type="matrix" values="0 0 0 0 0 0 0 0 0 0 0 0 0 0 0 0 0 0 127 0" result="hardAlpha"/>
<feOffset/>
<feGaussianBlur stdDeviation="8"/>
<feComposite in2="hardAlpha" operator="out"/>
<feColorMatrix type="matrix" values="0 0 0 0 0 0 0 0 0 0 0 0 0 0 0 0 0 0 0.25 0"/>
<feBlend mode="normal" in2="BackgroundImageFix" result="effect1_dropShadow_43_57"/>
<feBlend mode="normal" in="SourceGraphic" in2="effect1_dropShadow_43_57" result="shape"/>
</filter>
<filter id="filter1_d_43_57" x="32.7119" y="0" width="293.742" height="170.991" filterUnits="userSpaceOnUse" color-interpolation-filters="sRGB">
<feFlood flood-opacity="0" result="BackgroundImageFix"/>
<feColorMatrix in="SourceAlpha" type="matrix" values="0 0 0 0 0 0 0 0 0 0 0 0 0 0 0 0 0 0 127 0" result="hardAlpha"/>
<feOffset/>
<feGaussianBlur stdDeviation="8"/>
<feComposite in2="hardAlpha" operator="out"/>
<feColorMatrix type="matrix" values="0 0 0 0 0 0 0 0 0 0 0 0 0 0 0 0 0 0 0.25 0"/>
<feBlend mode="normal" in2="BackgroundImageFix" result="effect1_dropShadow_43_57"/>
<feBlend mode="normal" in="SourceGraphic" in2="effect1_dropShadow_43_57" result="shape"/>
</filter>
</defs>
</svg>
