<svg width="430" height="338" viewBox="0 0 430 338" fill="none" xmlns="http://www.w3.org/2000/svg">
<path d="M264.675 141.735C299.973 105.663 358.027 105.663 393.325 141.735L525.743 277.054C581.494 334.026 541.13 430 461.418 430H196.582C116.87 430 76.506 334.026 132.257 277.054L264.675 141.735Z" fill="url(#paint0_linear_1_107)"/>
<g filter="url(#filter0_d_1_107)">
<path d="M79.6746 191.735C114.973 155.663 173.027 155.663 208.325 191.735L340.743 327.054C396.494 384.026 356.13 480 276.418 480H11.5824C-68.1297 480 -108.494 384.026 -52.7431 327.054L79.6746 191.735Z" fill="#B8914A"/>
</g>
<g filter="url(#filter1_d_1_107)">
<path d="M369.932 43.221H288.242C285.899 43.221 284 45.1203 284 47.4633V110.919C284 113.262 285.899 115.161 288.242 115.161H369.932C372.275 115.161 374.174 113.262 374.174 110.919V47.4633C374.174 45.1203 372.275 43.221 369.932 43.221Z" fill="#0037FF"/>
</g>
<g filter="url(#filter2_d_1_107)">
<path d="M365.156 52.0701C365.156 32.1504 349.008 16 329.086 16C309.164 16 293.016 32.1483 293.016 52.0701C293.016 52.1034 293.016 52.1367 293.016 52.1701C293.016 53.3515 293.975 54.3079 295.154 54.3079H297.892C299.073 54.3079 300.03 53.3494 300.03 52.1701C300.03 52.1367 300.03 52.1034 300.03 52.0701C300.03 44.3085 303.053 37.0115 308.539 31.5253C314.028 26.0369 321.325 23.0157 329.084 23.0157C336.844 23.0157 344.143 26.039 349.629 31.5253C355.117 37.0136 358.139 44.3106 358.139 52.0701C358.139 52.1034 358.139 52.1367 358.139 52.1701C358.139 53.3515 359.097 54.3079 360.276 54.3079H363.014C364.196 54.3079 365.152 53.3494 365.152 52.1701C365.152 52.1367 365.152 52.1034 365.152 52.0701H365.156Z" fill="#FCBA03"/>
</g>
<path d="M341.511 66.5661C340.55 64.8971 339.144 63.6615 337.29 62.8593C335.435 62.0571 333.164 61.657 330.476 61.657H318.001V90.3635C318.001 90.3635 318.001 90.3677 318.001 90.3697C318.001 91.2511 317.286 91.9658 316.405 91.9658C315.936 91.9658 315.515 91.7616 315.222 91.4387H315.219L315.745 96.3165C316.445 96.579 317.203 96.7228 317.995 96.7228H317.999C317.999 96.7228 318.005 96.7228 318.007 96.7228C318.116 96.7228 318.222 96.7207 318.33 96.7145C318.33 96.7145 318.33 96.7145 318.332 96.7145C319.316 96.6645 320.239 96.3915 321.058 95.9477C321.058 95.9477 321.058 95.9477 321.06 95.9477C321.331 95.7997 321.591 95.633 321.837 95.4476C321.841 95.4455 321.845 95.4413 321.848 95.4393C321.927 95.3809 322.004 95.3205 322.079 95.258C322.158 95.1934 322.235 95.1267 322.31 95.058C322.312 95.0559 322.316 95.0517 322.318 95.0496C322.391 94.9829 322.462 94.9163 322.533 94.8454C322.544 94.835 322.552 94.8246 322.562 94.8142C322.625 94.7517 322.685 94.6871 322.746 94.6225C322.758 94.6079 322.771 94.5933 322.783 94.5787C322.839 94.5162 322.894 94.4537 322.948 94.3891C322.958 94.3766 322.966 94.3662 322.975 94.3537C323.031 94.2849 323.085 94.2162 323.137 94.1474C323.148 94.1349 323.156 94.1203 323.167 94.1057C323.217 94.037 323.269 93.9661 323.317 93.8953C323.333 93.8703 323.35 93.8432 323.367 93.8182C323.406 93.7578 323.446 93.6973 323.483 93.6369C323.504 93.6036 323.523 93.5681 323.544 93.5327C323.575 93.4786 323.608 93.4244 323.637 93.3681C323.654 93.3389 323.669 93.3077 323.683 93.2764C323.715 93.2139 323.748 93.1535 323.779 93.091C323.798 93.0514 323.817 93.0097 323.833 92.9701C323.858 92.916 323.883 92.8618 323.906 92.8076C323.925 92.7618 323.942 92.7159 323.96 92.6701C323.981 92.6201 324.002 92.568 324.021 92.518C324.035 92.4805 324.046 92.4409 324.06 92.4013C324.081 92.3409 324.102 92.2805 324.123 92.22C324.129 92.1992 324.135 92.1763 324.142 92.1534C324.165 92.0742 324.19 91.995 324.208 91.9158C324.219 91.8783 324.225 91.8408 324.233 91.8033C324.25 91.7366 324.265 91.672 324.279 91.6053C324.294 91.5324 324.306 91.4574 324.319 91.3824C324.323 91.3511 324.331 91.322 324.335 91.2907C324.346 91.2178 324.354 91.1428 324.363 91.0698C324.367 91.0365 324.371 91.0032 324.375 90.9698C324.379 90.9282 324.381 90.8865 324.385 90.8448C324.4 90.6698 324.408 90.4927 324.408 90.3156V84.5584H330.62C333.258 84.5584 335.495 84.1459 337.333 83.3187C339.171 82.4915 340.565 81.2225 341.517 79.5118C342.469 77.8012 342.945 75.6258 342.945 72.9859C342.945 70.3459 342.465 68.2435 341.505 66.5724L341.511 66.5661ZM334.797 77.7137C333.704 78.6992 332.064 79.191 329.876 79.191H324.415V67.0183H329.726C331.98 67.0183 333.662 67.5017 334.772 68.4706C335.883 69.4395 336.437 70.9751 336.437 73.0796C336.437 75.1841 335.889 76.7281 334.797 77.7137Z" fill="white"/>
<defs>
<filter id="filter0_d_1_107" x="-78.5975" y="160.681" width="470.195" height="331.319" filterUnits="userSpaceOnUse" color-interpolation-filters="sRGB">
<feFlood flood-opacity="0" result="BackgroundImageFix"/>
<feColorMatrix in="SourceAlpha" type="matrix" values="0 0 0 0 0 0 0 0 0 0 0 0 0 0 0 0 0 0 127 0" result="hardAlpha"/>
<feOffset dx="17" dy="4"/>
<feGaussianBlur stdDeviation="4"/>
<feComposite in2="hardAlpha" operator="out"/>
<feColorMatrix type="matrix" values="0 0 0 0 0 0 0 0 0 0 0 0 0 0 0 0 0 0 0.25 0"/>
<feBlend mode="normal" in2="BackgroundImageFix" result="effect1_dropShadow_1_107"/>
<feBlend mode="normal" in="SourceGraphic" in2="effect1_dropShadow_1_107" result="shape"/>
</filter>
<filter id="filter1_d_1_107" x="268" y="27.2209" width="122.174" height="103.94" filterUnits="userSpaceOnUse" color-interpolation-filters="sRGB">
<feFlood flood-opacity="0" result="BackgroundImageFix"/>
<feColorMatrix in="SourceAlpha" type="matrix" values="0 0 0 0 0 0 0 0 0 0 0 0 0 0 0 0 0 0 127 0" result="hardAlpha"/>
<feOffset/>
<feGaussianBlur stdDeviation="8"/>
<feComposite in2="hardAlpha" operator="out"/>
<feColorMatrix type="matrix" values="0 0 0 0 0 0 0 0 0 0 0 0 0 0 0 0 0 0 0.25 0"/>
<feBlend mode="normal" in2="BackgroundImageFix" result="effect1_dropShadow_1_107"/>
<feBlend mode="normal" in="SourceGraphic" in2="effect1_dropShadow_1_107" result="shape"/>
</filter>
<filter id="filter2_d_1_107" x="277.016" y="0" width="104.14" height="70.3079" filterUnits="userSpaceOnUse" color-interpolation-filters="sRGB">
<feFlood flood-opacity="0" result="BackgroundImageFix"/>
<feColorMatrix in="SourceAlpha" type="matrix" values="0 0 0 0 0 0 0 0 0 0 0 0 0 0 0 0 0 0 127 0" result="hardAlpha"/>
<feOffset/>
<feGaussianBlur stdDeviation="8"/>
<feComposite in2="hardAlpha" operator="out"/>
<feColorMatrix type="matrix" values="0 0 0 0 0 0 0 0 0 0 0 0 0 0 0 0 0 0 0.25 0"/>
<feBlend mode="normal" in2="BackgroundImageFix" result="effect1_dropShadow_1_107"/>
<feBlend mode="normal" in="SourceGraphic" in2="effect1_dropShadow_1_107" result="shape"/>
</filter>
<linearGradient id="paint0_linear_1_107" x1="329" y1="76" x2="329" y2="340.5" gradientUnits="userSpaceOnUse">
<stop stop-color="#755C2E"/>
<stop offset="0.527491" stop-color="#B8914A"/>
</linearGradient>
</defs>
</svg>
